<mxfile host="app.diagrams.net" modified="2023-08-19T13:49:59.515Z" agent="Mozilla/5.0 (X11; Linux x86_64) AppleWebKit/537.36 (KHTML, like Gecko) Chrome/115.0.0.0 Safari/537.36" version="21.6.8" etag="sxDxDnp-JKY3M7IGOzVC" type="github">
  <diagram name="Page-1" id="KFZj0Eis_kgRhYF0saJN">
    <mxGraphModel>
      <root>
        <mxCell id="0" />
        <mxCell id="1" parent="0" />
      </root>
    </mxGraphModel>
  </diagram>
</mxfile>
